<svg xmlns="http://www.w3.org/2000/svg" viewBox="0 0 48 48">
  <rect width="44" height="32" x="2" y="8" rx="4" fill="#2E77BB"/>
  <path fill="#FFFFFF" d="M13.2 21.6h2.4l.8 2 .8-2h2.4v4.8h-1.6v-3.2l-1.2 2.8h-1.2l-1.2-2.8v3.2h-1.6v-4.8zm8 0h4l1.2 1.2-1.2 1.2h-2.4v.8h2.8l1.2 1.2-1.2 1.2h-4.4v-4.8zm1.6 1.6h1.6l.4-.4-.4-.4h-1.6v.8zm8-1.6h2.4l.8 2 .8-2h2.4v4.8h-1.6v-3.2l-1.2 2.8h-1.2l-1.2-2.8v3.2h-1.6v-4.8zm8 0h4l1.2 1.2-1.2 1.2h-2.4v.8h2.8l1.2 1.2-1.2 1.2h-4.4v-4.8zm1.6 1.6h1.6l.4-.4-.4-.4h-1.6v.8z"/>
</svg> 