<svg xmlns="http://www.w3.org/2000/svg" viewBox="0 0 48 48">
  <rect width="44" height="32" x="2" y="8" rx="4" fill="#FFFFFF"/>
  <path fill="#F48120" d="M46 24c0 6.6-5.4 12-12 12H2V24h44z"/>
  <path fill="#000000" d="M12.5 20.2c0-1.1-.7-1.8-1.8-1.8H8.4v3.6h2.2c1.1 0 1.9-.7 1.9-1.8zm-2.9 2.6H8.4v3.6h1.2c1.1 0 1.8-.7 1.8-1.8s-.7-1.8-1.8-1.8zm7.2-4.4h-1.2v8h1.2v-8zm4.8 3.2c-1.1 0-1.8.7-1.8 1.8s.7 1.8 1.8 1.8 1.8-.7 1.8-1.8-.8-1.8-1.8-1.8zm0 4.4c-1.5 0-2.6-1.1-2.6-2.6s1.1-2.6 2.6-2.6 2.6 1.1 2.6 2.6-1.2 2.6-2.6 2.6z"/>
  <path fill="#F48120" d="M44 8H4c-1.1 0-2 .9-2 2v8h44v-8c0-1.1-.9-2-2-2z"/>
</svg> 