<svg xmlns="http://www.w3.org/2000/svg" viewBox="0 0 48 48">
  <rect width="44" height="32" x="2" y="8" rx="4" fill="#FFFFFF"/>
  <path fill="#0B4EA2" d="M14 18c0-1.1.9-2 2-2h4c1.1 0 2 .9 2 2v6c0 1.1-.9 2-2 2h-4c-1.1 0-2-.9-2-2v-6z"/>
  <path fill="#F2AE14" d="M24 18c0-1.1.9-2 2-2h4c1.1 0 2 .9 2 2v6c0 1.1-.9 2-2 2h-4c-1.1 0-2-.9-2-2v-6z"/>
  <path fill="#E6001A" d="M34 18c0-1.1.9-2 2-2h4c1.1 0 2 .9 2 2v6c0 1.1-.9 2-2 2h-4c-1.1 0-2-.9-2-2v-6z"/>
  <path fill="#FFFFFF" d="M16 21h2v2h-2zm10 0h2v2h-2zm10 0h2v2h-2z"/>
</svg> 