<svg xmlns="http://www.w3.org/2000/svg" viewBox="0 0 48 48">
  <rect width="44" height="32" x="2" y="8" rx="4" fill="#1A1F71"/>
  <path fill="#F7B600" d="M18.6 21.9l-3.3 7.8h-2.2l-1.6-6.3c-.1-.4-.2-.5-.5-.7-.8-.4-1.7-.7-2.7-.9l.1-.3h4.6c.6 0 1.1.4 1.2 1.1l1.1 5.8 2.7-6.9h2.2l.4-.6zm4.3 5.3c0-2.1 2.9-2.1 2.9-3 0-.3-.3-.6-.9-.7-.8 0-1.7.3-2.2.5l-.4-1.6c.5-.2 1.5-.5 2.6-.5 1.8 0 2.9.9 2.9 2.2 0 1.7-2.9 1.8-2.9 2.7 0 .2.3.5.8.6.7.1 1.4-.1 1.9-.3l.3 1.6c-.5.2-1.1.3-1.9.3-2 0-3.1-.9-3.1-1.8zm9.3 2.5h-1.9l-1.5-7.8h2l.9 4.9.5 2.6.2-.5 2.4-7h2.1l-4.7 7.8zm7.8-5.6c0 2.7-1.9 5.8-4.8 5.8-.7 0-1.3-.2-1.6-.4l.3-1.7c.3.2.8.3 1.3.3 1.6 0 2.7-1.9 2.7-3.5 0-.9-.4-1.5-1.4-1.5-2 0-2.8 2.5-2.8 4.3 0 1.3.6 2.1 1.8 2.1.6 0 1.1-.2 1.5-.5l-.3 1.8c-.4.2-1 .4-1.7.4-1.9 0-3.1-1.2-3.1-3.2 0-2.7 1.6-5.9 5-5.9 1.7-.1 2.8.9 2.8 2z" />
</svg> 